<mxfile host="app.diagrams.net" agent="Mozilla/5.0 (Macintosh; Intel Mac OS X 10_15_7) AppleWebKit/537.36 (KHTML, like Gecko) Chrome/130.0.0.0 Safari/537.36" version="24.8.3">
  <diagram name="Page-1" id="T7Rh1t_5sSWZolZ_UH_h">
    <mxGraphModel dx="781" dy="556" grid="1" gridSize="10" guides="1" tooltips="1" connect="1" arrows="1" fold="1" page="1" pageScale="1" pageWidth="850" pageHeight="1100" math="0" shadow="0">
      <root>
        <mxCell id="0" />
        <mxCell id="1" parent="0" />
        <mxCell id="1cNQ2ba3ybNPeoxyqUZn-24" style="edgeStyle=orthogonalEdgeStyle;rounded=0;orthogonalLoop=1;jettySize=auto;html=1;entryX=0.5;entryY=0;entryDx=0;entryDy=0;" edge="1" parent="1" source="1cNQ2ba3ybNPeoxyqUZn-1" target="1cNQ2ba3ybNPeoxyqUZn-10">
          <mxGeometry relative="1" as="geometry" />
        </mxCell>
        <mxCell id="1cNQ2ba3ybNPeoxyqUZn-1" value="" style="rounded=0;whiteSpace=wrap;html=1;" vertex="1" parent="1">
          <mxGeometry x="90" y="50" width="480" height="340" as="geometry" />
        </mxCell>
        <mxCell id="1cNQ2ba3ybNPeoxyqUZn-2" value="Gifs, Gifs, and More Gifs" style="text;html=1;align=center;verticalAlign=middle;whiteSpace=wrap;rounded=0;" vertex="1" parent="1">
          <mxGeometry x="100" y="60" width="160" height="30" as="geometry" />
        </mxCell>
        <mxCell id="1cNQ2ba3ybNPeoxyqUZn-3" value="" style="rounded=1;whiteSpace=wrap;html=1;" vertex="1" parent="1">
          <mxGeometry x="100" y="100" width="120" height="20" as="geometry" />
        </mxCell>
        <mxCell id="1cNQ2ba3ybNPeoxyqUZn-4" value="Search" style="text;html=1;align=center;verticalAlign=middle;whiteSpace=wrap;rounded=0;" vertex="1" parent="1">
          <mxGeometry x="110" y="95" width="100" height="30" as="geometry" />
        </mxCell>
        <mxCell id="1cNQ2ba3ybNPeoxyqUZn-5" value="" style="rounded=1;whiteSpace=wrap;html=1;" vertex="1" parent="1">
          <mxGeometry x="225" y="95" width="50" height="20" as="geometry" />
        </mxCell>
        <mxCell id="1cNQ2ba3ybNPeoxyqUZn-6" value="Button" style="text;html=1;align=center;verticalAlign=middle;whiteSpace=wrap;rounded=0;" vertex="1" parent="1">
          <mxGeometry x="220" y="90" width="60" height="30" as="geometry" />
        </mxCell>
        <mxCell id="1cNQ2ba3ybNPeoxyqUZn-8" value="" style="shape=flexArrow;endArrow=classic;html=1;rounded=0;endWidth=25;endSize=4.62;entryX=0.417;entryY=0.206;entryDx=0;entryDy=0;entryPerimeter=0;" edge="1" parent="1" target="1cNQ2ba3ybNPeoxyqUZn-1">
          <mxGeometry width="50" height="50" relative="1" as="geometry">
            <mxPoint x="380" y="290" as="sourcePoint" />
            <mxPoint x="430" y="240" as="targetPoint" />
            <Array as="points">
              <mxPoint x="390" y="280" />
            </Array>
          </mxGeometry>
        </mxCell>
        <mxCell id="1cNQ2ba3ybNPeoxyqUZn-9" style="edgeStyle=orthogonalEdgeStyle;rounded=0;orthogonalLoop=1;jettySize=auto;html=1;exitX=0;exitY=0.5;exitDx=0;exitDy=0;entryX=0.021;entryY=0.147;entryDx=0;entryDy=0;entryPerimeter=0;" edge="1" parent="1" source="1cNQ2ba3ybNPeoxyqUZn-3" target="1cNQ2ba3ybNPeoxyqUZn-1">
          <mxGeometry relative="1" as="geometry" />
        </mxCell>
        <mxCell id="1cNQ2ba3ybNPeoxyqUZn-10" value="" style="rounded=0;whiteSpace=wrap;html=1;" vertex="1" parent="1">
          <mxGeometry x="90" y="470" width="480" height="320" as="geometry" />
        </mxCell>
        <mxCell id="1cNQ2ba3ybNPeoxyqUZn-11" value="Gifs, Gifs, and More Gifs" style="text;html=1;align=center;verticalAlign=middle;whiteSpace=wrap;rounded=0;" vertex="1" parent="1">
          <mxGeometry x="100" y="450" width="140" height="30" as="geometry" />
        </mxCell>
        <mxCell id="1cNQ2ba3ybNPeoxyqUZn-12" value="" style="rounded=1;whiteSpace=wrap;html=1;" vertex="1" parent="1">
          <mxGeometry x="100" y="480" width="120" height="20" as="geometry" />
        </mxCell>
        <mxCell id="1cNQ2ba3ybNPeoxyqUZn-13" value="" style="rounded=1;whiteSpace=wrap;html=1;" vertex="1" parent="1">
          <mxGeometry x="230" y="480" width="40" height="20" as="geometry" />
        </mxCell>
        <mxCell id="1cNQ2ba3ybNPeoxyqUZn-14" value="" style="whiteSpace=wrap;html=1;aspect=fixed;" vertex="1" parent="1">
          <mxGeometry x="100" y="520" width="80" height="80" as="geometry" />
        </mxCell>
        <mxCell id="1cNQ2ba3ybNPeoxyqUZn-15" value="" style="whiteSpace=wrap;html=1;aspect=fixed;" vertex="1" parent="1">
          <mxGeometry x="195" y="520" width="80" height="80" as="geometry" />
        </mxCell>
        <mxCell id="1cNQ2ba3ybNPeoxyqUZn-16" value="" style="whiteSpace=wrap;html=1;aspect=fixed;" vertex="1" parent="1">
          <mxGeometry x="290" y="520" width="80" height="80" as="geometry" />
        </mxCell>
        <mxCell id="1cNQ2ba3ybNPeoxyqUZn-17" value="" style="whiteSpace=wrap;html=1;aspect=fixed;" vertex="1" parent="1">
          <mxGeometry x="385" y="520" width="80" height="80" as="geometry" />
        </mxCell>
        <mxCell id="1cNQ2ba3ybNPeoxyqUZn-18" value="" style="whiteSpace=wrap;html=1;aspect=fixed;" vertex="1" parent="1">
          <mxGeometry x="110" y="610" width="80" height="80" as="geometry" />
        </mxCell>
        <mxCell id="1cNQ2ba3ybNPeoxyqUZn-19" value="" style="whiteSpace=wrap;html=1;aspect=fixed;" vertex="1" parent="1">
          <mxGeometry x="200" y="610" width="80" height="80" as="geometry" />
        </mxCell>
        <mxCell id="1cNQ2ba3ybNPeoxyqUZn-20" value="" style="whiteSpace=wrap;html=1;aspect=fixed;" vertex="1" parent="1">
          <mxGeometry x="290" y="610" width="80" height="80" as="geometry" />
        </mxCell>
        <mxCell id="1cNQ2ba3ybNPeoxyqUZn-21" value="" style="whiteSpace=wrap;html=1;aspect=fixed;" vertex="1" parent="1">
          <mxGeometry x="390" y="610" width="80" height="80" as="geometry" />
        </mxCell>
        <mxCell id="1cNQ2ba3ybNPeoxyqUZn-22" value="" style="whiteSpace=wrap;html=1;aspect=fixed;" vertex="1" parent="1">
          <mxGeometry x="210" y="700" width="80" height="80" as="geometry" />
        </mxCell>
        <mxCell id="1cNQ2ba3ybNPeoxyqUZn-23" value="" style="whiteSpace=wrap;html=1;aspect=fixed;" vertex="1" parent="1">
          <mxGeometry x="330" y="700" width="80" height="80" as="geometry" />
        </mxCell>
      </root>
    </mxGraphModel>
  </diagram>
</mxfile>
